<svg width="334" height="101" viewBox="0 0 334 101" fill="none" xmlns="http://www.w3.org/2000/svg">
<g filter="url(#filter0_ii_0_300)">
<path d="M14.05 90H0.0800004V1.09999H44.149V90H29.925V13.8H14.05V90ZM61.8982 69.553C61.8982 72.7703 62.5332 75.0563 63.8032 76.411C65.1579 77.681 66.9359 78.316 69.1372 78.316C71.3386 78.316 73.0742 77.681 74.3442 76.411C75.6989 75.0563 76.3762 72.7703 76.3762 69.553V21.547C76.3762 18.3297 75.6989 16.086 74.3442 14.816C73.0742 13.4613 71.3386 12.784 69.1372 12.784C66.9359 12.784 65.1579 13.4613 63.8032 14.816C62.5332 16.086 61.8982 18.3297 61.8982 21.547V69.553ZM47.9282 22.436C47.9282 15.2393 49.7486 9.73599 53.3892 5.92599C57.0299 2.03133 62.2792 0.0839995 69.1372 0.0839995C75.9952 0.0839995 81.2446 2.03133 84.8852 5.92599C88.5259 9.73599 90.3462 15.2393 90.3462 22.436V68.664C90.3462 75.8607 88.5259 81.4063 84.8852 85.301C81.2446 89.111 75.9952 91.016 69.1372 91.016C62.2792 91.016 57.0299 89.111 53.3892 85.301C49.7486 81.4063 47.9282 75.8607 47.9282 68.664V22.436ZM89.0197 77.3C89.7817 77.3847 90.586 77.427 91.4327 77.427C92.2794 77.427 93.0837 77.427 93.8457 77.427C96.047 77.427 97.9097 76.8767 99.4337 75.776C101.042 74.6753 101.847 72.3893 101.847 68.918V1.09999H146.043V77.3H153.155V100.16H138.931V90H103.244V100.16H89.0197V77.3ZM115.817 67.902C115.817 71.6273 115.436 74.76 114.674 77.3H132.073V13.8H115.817V67.902ZM198.845 90H184.748L182.335 73.871H165.19L162.777 90H149.95L164.174 1.09999H184.621L198.845 90ZM166.968 61.806H180.43L173.699 16.848L166.968 61.806ZM220.724 1.09999C227.751 1.09999 232.958 2.96266 236.345 6.688C239.816 10.4133 241.552 15.8743 241.552 23.071V34.628C241.552 41.8247 239.816 47.2857 236.345 51.011C232.958 54.7363 227.751 56.599 220.724 56.599H214.12V90H200.15V1.09999H220.724ZM214.12 13.8V43.899H220.724C222.925 43.899 224.618 43.3063 225.804 42.121C226.989 40.9357 227.582 38.7343 227.582 35.517V22.182C227.582 18.9647 226.989 16.7633 225.804 15.578C224.618 14.3927 222.925 13.8 220.724 13.8H214.12ZM255.519 69.553C255.519 72.7703 256.154 75.0563 257.424 76.411C258.778 77.681 260.556 78.316 262.758 78.316C264.959 78.316 266.695 77.681 267.965 76.411C269.319 75.0563 269.997 72.7703 269.997 69.553V21.547C269.997 18.3297 269.319 16.086 267.965 14.816C266.695 13.4613 264.959 12.784 262.758 12.784C260.556 12.784 258.778 13.4613 257.424 14.816C256.154 16.086 255.519 18.3297 255.519 21.547V69.553ZM241.549 22.436C241.549 15.2393 243.369 9.73599 247.01 5.92599C250.65 2.03133 255.9 0.0839995 262.758 0.0839995C269.616 0.0839995 274.865 2.03133 278.506 5.92599C282.146 9.73599 283.967 15.2393 283.967 22.436V68.664C283.967 75.8607 282.146 81.4063 278.506 85.301C274.865 89.111 269.616 91.016 262.758 91.016C255.9 91.016 250.65 89.111 247.01 85.301C243.369 81.4063 241.549 75.8607 241.549 68.664V22.436ZM306.008 54.567L301.69 62.695V90H287.72V1.09999H301.69V39.835L320.232 1.09999H333.948L314.517 40.724L333.948 90H319.597L306.008 54.567Z" fill="#6C6C6C"/>
<path d="M14.05 90H0.0800004V1.09999H44.149V90H29.925V13.8H14.05V90ZM61.8982 69.553C61.8982 72.7703 62.5332 75.0563 63.8032 76.411C65.1579 77.681 66.9359 78.316 69.1372 78.316C71.3386 78.316 73.0742 77.681 74.3442 76.411C75.6989 75.0563 76.3762 72.7703 76.3762 69.553V21.547C76.3762 18.3297 75.6989 16.086 74.3442 14.816C73.0742 13.4613 71.3386 12.784 69.1372 12.784C66.9359 12.784 65.1579 13.4613 63.8032 14.816C62.5332 16.086 61.8982 18.3297 61.8982 21.547V69.553ZM47.9282 22.436C47.9282 15.2393 49.7486 9.73599 53.3892 5.92599C57.0299 2.03133 62.2792 0.0839995 69.1372 0.0839995C75.9952 0.0839995 81.2446 2.03133 84.8852 5.92599C88.5259 9.73599 90.3462 15.2393 90.3462 22.436V68.664C90.3462 75.8607 88.5259 81.4063 84.8852 85.301C81.2446 89.111 75.9952 91.016 69.1372 91.016C62.2792 91.016 57.0299 89.111 53.3892 85.301C49.7486 81.4063 47.9282 75.8607 47.9282 68.664V22.436ZM89.0197 77.3C89.7817 77.3847 90.586 77.427 91.4327 77.427C92.2794 77.427 93.0837 77.427 93.8457 77.427C96.047 77.427 97.9097 76.8767 99.4337 75.776C101.042 74.6753 101.847 72.3893 101.847 68.918V1.09999H146.043V77.3H153.155V100.16H138.931V90H103.244V100.16H89.0197V77.3ZM115.817 67.902C115.817 71.6273 115.436 74.76 114.674 77.3H132.073V13.8H115.817V67.902ZM198.845 90H184.748L182.335 73.871H165.19L162.777 90H149.95L164.174 1.09999H184.621L198.845 90ZM166.968 61.806H180.43L173.699 16.848L166.968 61.806ZM220.724 1.09999C227.751 1.09999 232.958 2.96266 236.345 6.688C239.816 10.4133 241.552 15.8743 241.552 23.071V34.628C241.552 41.8247 239.816 47.2857 236.345 51.011C232.958 54.7363 227.751 56.599 220.724 56.599H214.12V90H200.15V1.09999H220.724ZM214.12 13.8V43.899H220.724C222.925 43.899 224.618 43.3063 225.804 42.121C226.989 40.9357 227.582 38.7343 227.582 35.517V22.182C227.582 18.9647 226.989 16.7633 225.804 15.578C224.618 14.3927 222.925 13.8 220.724 13.8H214.12ZM255.519 69.553C255.519 72.7703 256.154 75.0563 257.424 76.411C258.778 77.681 260.556 78.316 262.758 78.316C264.959 78.316 266.695 77.681 267.965 76.411C269.319 75.0563 269.997 72.7703 269.997 69.553V21.547C269.997 18.3297 269.319 16.086 267.965 14.816C266.695 13.4613 264.959 12.784 262.758 12.784C260.556 12.784 258.778 13.4613 257.424 14.816C256.154 16.086 255.519 18.3297 255.519 21.547V69.553ZM241.549 22.436C241.549 15.2393 243.369 9.73599 247.01 5.92599C250.65 2.03133 255.9 0.0839995 262.758 0.0839995C269.616 0.0839995 274.865 2.03133 278.506 5.92599C282.146 9.73599 283.967 15.2393 283.967 22.436V68.664C283.967 75.8607 282.146 81.4063 278.506 85.301C274.865 89.111 269.616 91.016 262.758 91.016C255.9 91.016 250.65 89.111 247.01 85.301C243.369 81.4063 241.549 75.8607 241.549 68.664V22.436ZM306.008 54.567L301.69 62.695V90H287.72V1.09999H301.69V39.835L320.232 1.09999H333.948L314.517 40.724L333.948 90H319.597L306.008 54.567Z" fill="#666200" style="mix-blend-mode:color"/>
</g>
<defs>
<filter id="filter0_ii_0_300" x="0.0800171" y="-1.06666" width="333.868" height="102.377" filterUnits="userSpaceOnUse" color-interpolation-filters="sRGB">
<feFlood flood-opacity="0" result="BackgroundImageFix"/>
<feBlend mode="normal" in="SourceGraphic" in2="BackgroundImageFix" result="shape"/>
<feColorMatrix in="SourceAlpha" type="matrix" values="0 0 0 0 0 0 0 0 0 0 0 0 0 0 0 0 0 0 127 0" result="hardAlpha"/>
<feOffset dy="-2.30128"/>
<feGaussianBlur stdDeviation="0.57532"/>
<feComposite in2="hardAlpha" operator="arithmetic" k2="-1" k3="1"/>
<feColorMatrix type="matrix" values="0 0 0 0 0 0 0 0 0 0 0 0 0 0 0 0 0 0 0.5 0"/>
<feBlend mode="normal" in2="shape" result="effect1_innerShadow_0_300"/>
<feColorMatrix in="SourceAlpha" type="matrix" values="0 0 0 0 0 0 0 0 0 0 0 0 0 0 0 0 0 0 127 0" result="hardAlpha"/>
<feOffset dy="2.30128"/>
<feGaussianBlur stdDeviation="0.57532"/>
<feComposite in2="hardAlpha" operator="arithmetic" k2="-1" k3="1"/>
<feColorMatrix type="matrix" values="0 0 0 0 1 0 0 0 0 1 0 0 0 0 1 0 0 0 0.4 0"/>
<feBlend mode="normal" in2="effect1_innerShadow_0_300" result="effect2_innerShadow_0_300"/>
</filter>
</defs>
</svg>
